<?xml version="1.0" standalone="no"?><!DOCTYPE svg PUBLIC "-//W3C//DTD SVG 1.1//EN" "http://www.w3.org/Graphics/SVG/1.1/DTD/svg11.dtd"><svg class="icon" height="22" viewBox="0 0 1152 1024" version="1.1" xmlns="http://www.w3.org/2000/svg"><path d="M954.56 643.84a58.24 58.24 0 0 1-59.264-59.264 58.24 58.24 0 0 1 59.264-59.2 58.24 58.24 0 0 1 59.264 59.2 58.24 58.24 0 0 1-59.264 59.264m-33.472-348.608c7.552 28.224 12.8 57.216 12.8 87.872 0 218.304-200.064 382.848-465.28 382.848-5.376 0-11.456-0.576-17.536-1.216-1.536-0.192-29.952-5.76-31.488-5.888l9.856 13.184c68.416 82.624 184.512 136.384 327.68 136.384 7.872 0 17.792-1.984 25.664-1.984l201.408 92.8v-142.144C1100.672 799.808 1152 701.12 1152 588.544c0-131.968-89.472-244.224-230.912-293.312" fill="#2DA9DF" /><path d="M162.752 362.56c0-37.888 28.992-66.88 66.88-66.88 37.952 0 66.944 28.992 66.944 66.88 0 37.888-28.992 66.88-66.944 66.88a65.728 65.728 0 0 1-66.88-66.88z m289.92-66.88c37.888 0 66.88 28.992 66.88 66.88 0 37.888-28.992 66.88-66.88 66.88a65.728 65.728 0 0 1-66.88-66.88c0-37.888 28.992-66.88 66.88-66.88z m223.04 0c37.888 0 66.88 28.992 66.88 66.88 0 37.888-28.992 66.88-66.88 66.88a65.728 65.728 0 0 1-66.944-66.88c0-37.888 28.992-66.88 66.944-66.88z m-253.76 433.152c9.024 0 20.288 2.24 29.312 2.24 266.304 0 451.328-162.496 451.328-365.568C902.592 162.432 717.568 0 451.264 0 185.024 0 0 162.432 0 365.504c0 128.64 58.688 241.472 191.808 306.88v162.496l230.144-106.048z" fill="#2DA9DF" /></svg>