<?xml version="1.0" standalone="no"?><!DOCTYPE svg PUBLIC "-//W3C//DTD SVG 1.1//EN" "http://www.w3.org/Graphics/SVG/1.1/DTD/svg11.dtd"><svg class="icon" height="22" viewBox="0 0 1024 1024" version="1.1" xmlns="http://www.w3.org/2000/svg"><path d="M944.3 597l-65.4-67.9c-10.7-11.1-10.5-28.5 0.5-39.4l63.4-62.6c18.3-18.1 22-46 9-68.1L911 289.4l-41.4-70.7c-12.6-21.6-38.2-32.4-62.7-26.5l-98.2 23.4c-14.5 3.5-29.2-4.7-33.8-18.8L644.4 103c-7.5-23.2-29.4-39-54.1-39h-162c-24.8 0-46.7 15.8-54.3 39.1l-30.5 93.8c-4.6 14-19.3 22.2-33.8 18.8l-97.8-23.3c-24.7-5.9-50.4 5.1-62.9 27L71.4 354.5c-12.4 21.6-9 48.7 8.3 66.7l66.1 68.6c10.5 10.9 10.5 28 0 38.9L80 597c-17.4 18.1-20.7 45.4-8.1 67.1l41.3 70.5 41.4 70.7c12.6 21.6 38.2 32.4 62.7 26.5l98.2-23.4c14.5-3.5 29.2 4.7 33.8 18.8l30.5 93.8c7.6 23.3 29.5 39.1 54.3 39.1h156.2c24.8 0 46.7-15.8 54.3-39.1l30.5-93.8c4.6-14 19.3-22.2 33.8-18.8l98.2 23.4c24.5 5.9 50-4.9 62.7-26.5l41.4-70.7 41.3-70.5c12.5-21.7 9.2-49-8.2-67.1zM881 664.9l-24.4 44.3-24 43.4c-6.1 11-18.7 16.7-31.1 14L692 743c-29.3-6.3-58.5 10.9-66.9 39.3l-30.5 103.8c-3.5 12-14.7 20.3-27.4 20.3H461.9c-12.7 0-23.8-8.3-27.4-20.3L404 782.3c-8.4-28.5-37.6-45.7-66.9-39.3L227 766.9c-12 2.6-24.4-2.7-30.6-13.2l-52.9-88.4c-6.4-10.7-4.9-24.2 3.5-33.4l75.8-81.8c20-21.5 20-54.6 0-76.2L147 392.1c-8.5-9.1-9.9-22.7-3.5-33.4l52.9-88.4c6.3-10.5 18.6-15.8 30.6-13.2L337.2 281c29.3 6.3 58.5-10.9 66.9-39.3l30.5-103.8c3.5-12 14.7-20.3 27.4-20.3h105.4c12.7 0 23.8 8.3 27.4 20.3l30.5 103.8c8.4 28.5 37.6 45.7 66.9 39.3l109.4-23.7c12.4-2.7 25 3 31.1 14l24 43.4 24.4 44.3c5.8 10.6 4.2 23.6-4 32.5l-76.3 82.3c-20 21.5-20 54.6 0 76.2l76.3 82.3c8.1 9 9.7 22.1 3.9 32.6z" fill="#6300CC" /><path d="M519.8 341.2c-92.8 0-168 75.2-168 168s75.2 168 168 168 168-75.2 168-168-75.3-168-168-168z m0 280c-61.9 0-112-50.1-112-112s50.1-112 112-112 112 50.1 112 112-50.2 112-112 112z" fill="#6300CC" /></svg>