<?xml version="1.0" standalone="no"?><!DOCTYPE svg PUBLIC "-//W3C//DTD SVG 1.1//EN" "http://www.w3.org/Graphics/SVG/1.1/DTD/svg11.dtd"><svg class="icon" height="22" viewBox="0 0 1024 1024" version="1.1" xmlns="http://www.w3.org/2000/svg"><path d="M341.9 749.8H226.1c-19.8 0-36-16.2-36-36s16.2-36 36-36h113.8c3-33.9 11.5-66.2 24.4-96.1H226.1c-19.8 0-36-16.2-36-36s16.2-36 36-36h182.2c35.2-43.3 81.9-76.9 135.5-96.1H226.1c-19.8 0-36-16.2-36-36s16.2-36 36-36H781c19.8 0 36 16.2 36 36s-16.2 36-36 36h-27.2c97.1 35 171.8 117 196.5 218.6v-518C950.3 54.1 901.2 5 841.1 5h-675C106 4.9 56.9 54.1 56.9 114.2v779.9c0 60.1 49.1 109.2 109.2 109.2H562c-115.1-33.6-202.7-132.2-220.1-253.5zM226.1 173.1H781c19.8 0 36 16.2 36 36s-16.2 36-36 36H226.1c-19.8 0-36-16.2-36-36s16.3-36 36-36z" fill="#F1735E" /><path d="M956.8 945.1L847.7 836c24.7-37.3 39.4-82.1 39.4-130.3 0-130.6-105.9-236.5-236.5-236.5S414.1 575.1 414.1 705.7 520 942.1 650.6 942.1c48.2 0 93-14.6 130.3-39.4l109.2 109.2c13.5 13.5 35.8 13.5 49.4 0l17.4-17.4c13.6-13.7 13.6-35.8-0.1-49.4zM778.2 766.3c-14 29.3-37.6 52.9-66.9 66.9-18.4 8.8-39 14.1-60.8 14.1-78.4 0-141.9-63.5-141.9-141.9s63.5-141.9 141.9-141.9S792.4 627 792.4 705.4c0 22-5.4 42.5-14.2 60.9z" fill="#F1735E" /></svg>