<?xml version="1.0" standalone="no"?><!DOCTYPE svg PUBLIC "-//W3C//DTD SVG 1.1//EN" "http://www.w3.org/Graphics/SVG/1.1/DTD/svg11.dtd"><svg class="icon" height="30" viewBox="0 0 1024 1024" version="1.1" xmlns="http://www.w3.org/2000/svg"><path d="M150.8951 567.17718l717.655558-441.225975-69.10714 616.652343z" fill="#DCE3FD" /><path d="M882.581983 103.833235a26.179724 26.179724 0 0 0-14.034396-4.076088 26.057882 26.057882 0 0 0-13.710849 3.882573l-717.659654 441.222903c-10.57264 6.497576-15.09207 19.246996-10.993457 31.018606 2.831043 8.122482 9.884589 14.421425 18.872255 16.842914l153.587918 41.552338c2.256643 0.608188 4.570624 0.915353 6.872318 0.915354 14.420401 0 26.153103-11.749084 26.153103-26.199178 0-11.806422-7.957637-22.202953-19.354504-25.283824l-96.041468-25.976995 620.276897-381.356328-59.752923 533.10842-318.27373-88.44731-6.792455 3.450493-12.991057 38.032221 3.871311 7.81634 349.971171 97.542484c2.227974 0.608188 4.535812 0.915353 6.861055 0.915353a26.109076 26.109076 0 0 0 14.73371-4.535812 26.190987 26.190987 0 0 0 11.300622-18.741197l69.109188-616.650295c1.102724-9.878446-3.609196-19.706721-12.005055-25.032972z" fill="#0065A3" /><path d="M695.985026 428.061881a23.122402 23.122402 0 0 0 6.974707-16.399571 23.135713 23.135713 0 0 0-6.667542-16.524485c-4.410898-4.49588-10.311549-6.974707-16.614587-6.974707a23.127522 23.127522 0 0 0-16.308445 6.667541l-225.772858 234.703185a23.416257 23.416257 0 0 0-6.974707 16.614587v255.046763c0 10.271618 6.598941 19.213208 16.427217 22.254148a23.360968 23.360968 0 0 0 6.854912 1.029004 23.252436 23.252436 0 0 0 19.235733-10.163085l141.151807-207.026541c7.230678-10.606428 4.490761-25.118979-6.12181-32.354777a23.182812 23.182812 0 0 0-13.10266-4.047418 23.262675 23.262675 0 0 0-19.246997 10.163085L477.186875 825.716416V655.922441l218.798151-227.86056z" fill="#0065A3" /></svg>